<?xml version="1.0" encoding="UTF-8"?><svg id="Capa_1" xmlns="http://www.w3.org/2000/svg" viewBox="0 0 183.17 114.45"><defs><style>.cls-1,.cls-2{stroke-width:5px;}.cls-1,.cls-2,.cls-3{stroke:#1d3d1b;stroke-miterlimit:10;}.cls-1,.cls-3{fill:#fff;}.cls-4{fill:#1d1d1b;}.cls-2{fill:none;}</style></defs><rect class="cls-1" x="49.45" y="2.5" width="131.22" height="71.69"/><polyline class="cls-3" points="38.12 87.87 165.07 87.87 155.02 95.66 30.58 95.66 16.75 104.22 141.61 104.22"/><polygon class="cls-2" points="7.13 111.9 47.3 79.42 175.5 79.42 136.19 111.05 7.13 111.9"/><g><path class="cls-4" d="M92.12,39.01l17.56-9.04v2.61l-14.8,7.42v.08l14.8,7.42v2.61l-17.56-9.04v-2.04Z"/><path class="cls-4" d="M114.69,46.27c.95,.61,3.14,1.55,5.45,1.55,4.28,0,5.6-2.72,5.56-4.77-.04-3.44-3.14-4.92-6.36-4.92h-1.85v-2.5h1.85c2.42,0,5.49-1.25,5.49-4.16,0-1.97-1.25-3.71-4.31-3.71-1.97,0-3.86,.87-4.92,1.63l-.87-2.42c1.29-.95,3.78-1.89,6.43-1.89,4.84,0,7.04,2.88,7.04,5.87,0,2.54-1.51,4.69-4.54,5.79v.08c3.03,.61,5.49,2.87,5.49,6.32,0,3.93-3.07,7.38-8.97,7.38-2.76,0-5.18-.87-6.4-1.67l.91-2.57Z"/></g></svg>